HIERARCHY
ROOT Hips
{
	OFFSET 0.000000 0.000000 0.000000
	CHANNELS 6 Xposition Yposition Zposition Zrotation Yrotation Xrotation 
	JOINT LHipJoint
	{
		OFFSET 0.000000 0.000000 0.000000
		CHANNELS 3 Zrotation Yrotation Xrotation
		JOINT LeftUpLeg
		{
			OFFSET 8.178360 -10.767780 5.035740
			CHANNELS 3 Zrotation Yrotation Xrotation
			JOINT LeftLeg
			{
				OFFSET 14.688660 -40.356780 0.000000
				CHANNELS 3 Zrotation Yrotation Xrotation
				JOINT LeftFoot
				{
					OFFSET 15.373200 -42.237540 0.000000
					CHANNELS 3 Zrotation Yrotation Xrotation
					JOINT LeftToeBase
					{
						OFFSET 0.945840 -2.598660 13.935300
						CHANNELS 3 Zrotation Yrotation Xrotation
						End Site
						{
							OFFSET 0.000000 0.000000 0.000000
						}
					}
				}
			}
		}
	}
	JOINT RHipJoint
	{
		OFFSET 0.000000 0.000000 0.000000
		CHANNELS 3 Zrotation Yrotation Xrotation
		JOINT RightUpLeg
		{
			OFFSET -7.833120 -10.767780 5.035740
			CHANNELS 3 Zrotation Yrotation Xrotation
			JOINT RightLeg
			{
				OFFSET -15.255180 -41.913300 0.000000
				CHANNELS 3 Zrotation Yrotation Xrotation
				JOINT RightFoot
				{
					OFFSET -15.409560 -42.337380 0.000000
					CHANNELS 3 Zrotation Yrotation Xrotation
					JOINT RightToeBase
					{
						OFFSET -0.988380 -2.715540 14.178900
						CHANNELS 3 Zrotation Yrotation Xrotation
						End Site
						{
							OFFSET 0.000000 0.000000 0.000000
						}
					}
				}
			}
		}
	}
	JOINT LowerBack
	{
		OFFSET 0.000000 0.000000 0.000000
		CHANNELS 3 Zrotation Yrotation Xrotation
		JOINT Spine
		{
			OFFSET 0.169620 12.213540 -1.160280
			CHANNELS 3 Zrotation Yrotation Xrotation
			JOINT Spine1
			{
				OFFSET 0.340320 12.293100 -0.256500
				CHANNELS 3 Zrotation Yrotation Xrotation
				JOINT Neck
				{
					OFFSET 0.000000 0.000000 0.000000
					CHANNELS 3 Zrotation Yrotation Xrotation
					JOINT Neck1
					{
						OFFSET -0.325020 10.477440 1.032120
						CHANNELS 3 Zrotation Yrotation Xrotation
						JOINT Head
						{
							OFFSET 0.624420 10.568160 -0.743820
							CHANNELS 3 Zrotation Yrotation Xrotation
							End Site
							{
								OFFSET 0.000000 0.000000 0.000000
							}
						}
					}
				}
				JOINT LeftShoulder
				{
					OFFSET 0.000000 0.000000 0.000000
					CHANNELS 3 Zrotation Yrotation Xrotation
					JOINT LeftArm
					{
						OFFSET 20.174460 7.205340 -1.867260
						CHANNELS 3 Zrotation Yrotation Xrotation
						JOINT LeftForeArm
						{
							OFFSET 29.898000 -0.000000 -0.000000
							CHANNELS 3 Zrotation Yrotation Xrotation
							JOINT LeftHand
							{
								OFFSET 20.901360 -0.000000 -0.000000
								CHANNELS 3 Zrotation Yrotation Xrotation
								JOINT LeftFingerBase
								{
									OFFSET 0.000000 0.000000 0.000000
									CHANNELS 3 Zrotation Yrotation Xrotation
									JOINT LeftHandIndex1
									{
										OFFSET 4.291560 -0.000000 -0.000000
										CHANNELS 3 Zrotation Yrotation Xrotation
										End Site
										{
											OFFSET 0.000000 0.000000 0.000000
										}
									}
								}
								JOINT LThumb
								{
									OFFSET 0.000000 0.000000 0.000000
									CHANNELS 3 Zrotation Yrotation Xrotation
									End Site
									{
										OFFSET 0.000000 0.000000 0.000000
									}
								}
							}
						}
					}
				}
				JOINT RightShoulder
				{
					OFFSET 0.000000 0.000000 0.000000
					CHANNELS 3 Zrotation Yrotation Xrotation
					JOINT RightArm
					{
						OFFSET -18.819600 8.244300 -2.427900
						CHANNELS 3 Zrotation Yrotation Xrotation
						JOINT RightForeArm
						{
							OFFSET -31.451400 -0.000000 -0.000000
							CHANNELS 3 Zrotation Yrotation Xrotation
							JOINT RightHand
							{
								OFFSET -20.665020 -0.000000 -0.000000
								CHANNELS 3 Zrotation Yrotation Xrotation
								JOINT RightFingerBase
								{
									OFFSET 0.000000 0.000000 0.000000
									CHANNELS 3 Zrotation Yrotation Xrotation
									JOINT RightHandIndex1
									{
										OFFSET -3.735180 -0.000000 -0.000000
										CHANNELS 3 Zrotation Yrotation Xrotation
										End Site
										{
											OFFSET 0.000000 0.000000 0.000000
										}
									}
								}
								JOINT RThumb
								{
									OFFSET 0.000000 0.000000 0.000000
									CHANNELS 3 Zrotation Yrotation Xrotation
									End Site
									{
										OFFSET 0.000000 0.000000 0.000000
									}
								}
							}
						}
					}
				}
			}
		}
	}
}
MOTION
Frames:	10
Frame Time:	0.0333333
-70.163568 107.612424 87.269010 -18.537959 74.388355 -14.181994 -3.665245 -0.838304 -0.573961 -6.790825 -5.497912 -28.975498 -1.795370 4.675683 11.993018 -1.461058 8.587084 5.928220 0.130800 -2.331600 -6.423100 2.997593 -1.219906 3.000726 20.444684 -8.614189 7.105325 0.877192 -1.619363 6.552647 2.608264 -11.695630 -4.277406 -0.084100 1.871000 -5.149200 5.758065 3.929599 10.590869 1.337689 5.993113 0.313288 -3.109156 3.133338 -4.107114 -11.010182 -5.310791 -14.979736 5.253205 -4.901422 18.578730 4.113800 -2.828100 14.053900 -6.762044 -0.660617 -1.759719 -77.716954 7.472449 3.377573 12.604278 -18.973896 -2.535362 -2.134523 -2.578465 10.220172 21.409565 23.646100 10.750000 -7.125000 0.000000 0.000000 -7.829100 58.230400 -2.544100 5.472603 1.757110 -1.067629 72.893150 2.422951 6.891246 -15.262977 23.254657 -3.560469 0.531567 -0.115034 1.906780 -15.720558 6.980545 -2.053400 7.125000 0.000000 0.000000 7.703300 -22.644600 4.180400 
-67.708032 107.498736 87.664788 -19.642489 74.912860 -14.620643 -3.610540 -0.867941 -0.582244 -7.310218 -5.130651 -29.352168 -1.743841 4.897178 12.679485 -0.942046 6.637292 6.601195 0.085700 -1.888800 -5.198300 2.949479 -1.279666 3.030031 20.376611 -8.452105 8.820137 0.951725 -1.064776 5.026089 2.873053 -12.684051 -3.593118 -0.134400 2.363200 -6.510600 6.146159 4.372480 10.205804 1.236635 6.584887 0.238782 -3.636248 3.446698 -4.000726 -10.846306 -5.430427 -15.088271 5.284606 -5.111995 18.367248 4.072300 -2.889400 14.000200 -6.817433 -0.563182 -1.762183 -77.554775 8.556989 1.771598 11.656628 -17.660544 -2.142583 -2.262129 -2.529571 13.110407 21.042738 24.345451 10.828700 -7.125000 0.000000 0.000000 -8.617600 58.917700 -2.945100 5.425695 1.720070 -1.080647 72.824232 3.571000 6.584650 -16.388228 24.725961 -4.067808 0.569195 -0.072367 -0.212032 -16.578034 6.841285 -2.122400 7.125000 0.000000 0.000000 7.056200 -22.778500 3.802000 
-64.773432 107.414838 87.821640 -19.020434 75.260811 -13.622015 -3.740787 -0.745144 -0.463130 -7.870912 -5.652638 -28.629646 -1.702054 5.129242 13.376905 -0.819695 6.024939 6.219938 0.000200 -0.087300 -0.240000 2.792983 -1.416029 3.017738 19.673959 -8.432106 11.968141 1.056114 0.139282 1.682765 3.308435 -14.461192 -1.207413 -0.630200 5.079600 -14.135700 6.292476 4.757034 9.908580 1.131312 7.075314 0.125449 -4.078547 3.709442 -4.106518 -10.812542 -5.435530 -15.055983 5.164717 -5.112807 18.275667 4.016700 -2.901700 13.951600 -6.863007 -0.450482 -1.779358 -77.906567 9.906158 -0.170103 10.811151 -16.429751 -1.804763 -2.277746 -2.463116 15.641666 19.835134 24.387746 10.176600 -7.125000 0.000000 0.000000 -10.086100 58.682500 -3.396000 5.373671 1.660218 -1.111325 73.015081 4.157107 6.449602 -17.586930 26.268625 -4.648718 0.554170 -0.062991 -1.446809 -16.494264 7.377770 -2.272800 7.125000 0.000000 0.000000 7.115900 -22.224800 3.925300 
-61.464936 107.506032 87.869064 -17.498611 75.135760 -11.577083 -3.944503 -0.653111 -0.203011 -9.385732 -4.062302 -28.036313 -1.688195 5.248923 13.766591 -0.714877 5.794628 7.406935 0.000000 -0.008000 -0.022000 2.731657 -1.392568 2.947445 19.012360 -6.828647 11.802375 0.931920 -1.184099 5.124794 3.584179 -15.360555 -1.911476 -0.480000 4.442700 -12.325600 6.170021 5.463616 9.200746 0.912749 7.935448 0.019493 -4.688167 4.153712 -3.939585 -10.073373 -5.645932 -15.442875 4.909242 -5.605809 18.424572 3.677500 -3.042600 14.133300 -6.906280 -0.387191 -1.770470 -78.086925 10.617493 -2.748565 10.008986 -15.221480 -1.504987 -2.246288 -2.402539 18.254068 18.129210 24.395349 9.242200 -7.125000 0.000000 0.000000 -12.105900 58.288200 -3.972800 5.322394 1.577449 -1.161999 73.856193 4.396886 6.090215 -18.871037 27.865176 -5.300464 0.560319 -0.045938 -2.269788 -16.891112 7.627333 -2.404100 7.125000 0.000000 0.000000 6.817800 -21.958500 3.800100 
-57.869484 108.120678 87.758412 -12.190194 75.898784 -6.100033 -4.346238 -0.562350 0.003640 -11.632203 -3.083884 -27.546060 -1.722726 5.249634 13.666839 -1.090689 7.973141 9.486866 0.016800 0.837300 2.301300 2.507804 -1.470454 2.894608 17.107034 -6.256208 12.308121 0.774147 -1.939549 7.009082 3.823213 -16.375089 0.361272 -0.551100 4.755600 -13.212900 4.998208 5.557431 8.766418 0.681836 7.875537 -0.165667 -4.762746 4.143611 -4.280534 -10.004234 -5.547341 -15.466752 4.804194 -5.467431 18.607954 3.629300 -2.985300 14.232100 -6.896185 -0.262471 -1.844149 -78.965728 12.448422 -3.015674 9.835061 -14.961271 -1.432169 -2.065970 -2.496972 17.656297 16.548362 24.260110 8.342500 -7.125000 0.000000 0.000000 -13.914600 57.809200 -4.419300 5.234247 1.501335 -1.206345 74.674913 4.272508 7.220754 -20.069696 29.298087 -5.939397 0.533533 -0.069313 -1.952962 -16.716740 8.492545 -2.645900 7.125000 0.000000 0.000000 6.948600 -21.050700 4.018100 
-54.198042 108.467820 87.633786 -8.672625 77.764636 -2.647087 -4.697083 -0.508319 0.333085 -13.776659 -1.699970 -26.624901 -1.742740 5.204200 13.740690 -0.552091 6.142010 11.380136 0.038500 1.266500 3.482400 2.332625 -1.460942 2.726126 15.511498 -7.332916 10.252947 0.149972 -4.186775 13.145175 3.577330 -15.724405 2.888278 -0.363700 3.874200 -10.723000 4.389533 5.227939 8.283174 0.627502 7.349348 -0.161414 -4.684114 3.890522 -4.152677 -10.056852 -5.507144 -15.571869 4.651706 -5.361903 18.526599 3.564900 -2.962900 14.191100 -6.952493 -0.222170 -1.830007 -80.052121 12.613120 -3.881150 9.291812 -14.009559 -1.228016 -2.172105 -2.425114 19.077641 16.731808 24.212965 8.440800 -7.125000 0.000000 0.000000 -13.637700 57.803800 -4.327400 5.185888 1.443721 -1.242832 75.466531 3.828952 8.175797 -21.367252 30.812634 -6.663169 0.522049 -0.085965 -1.315351 -16.872190 9.230967 -2.900200 7.125000 0.000000 0.000000 6.835600 -20.267400 4.073200 
-50.476134 108.717690 87.431940 -12.947169 79.634144 -7.021164 -4.628506 -0.436375 0.677504 -14.508945 0.147920 -26.074801 -1.676923 5.328022 14.460293 0.543865 1.128922 12.964700 0.197300 2.860400 7.890200 2.347135 -1.333686 2.506807 15.545628 -7.789631 8.127293 -0.810897 -6.558464 19.667389 3.449932 -16.663581 8.305272 -0.091500 1.950800 -5.369600 5.359321 4.803506 7.859067 0.792869 6.893476 -0.178283 -4.782622 3.642891 -3.991677 -10.214383 -5.636167 -15.463583 4.798733 -5.505477 18.505577 3.641900 -3.023000 14.175800 -7.011040 -0.201512 -1.799770 -80.982383 12.052776 -3.501437 8.824887 -13.107296 -1.062267 -2.212733 -2.399231 20.099092 16.302907 24.343745 8.264400 -7.125000 0.000000 0.000000 -14.180000 57.847400 -4.518900 5.163848 1.436106 -1.273858 76.218946 2.810904 8.917787 -22.331636 31.928948 -7.230547 0.507399 -0.108479 -0.567266 -16.838554 10.023508 -3.139600 7.125000 0.000000 0.000000 6.863700 -19.433100 4.219300 
-46.844208 109.127454 87.281778 -9.566150 81.285126 -4.018203 -4.960543 -0.330041 1.141346 -16.193626 1.474106 -24.532890 -1.695518 5.133282 14.274367 1.106975 -2.204002 13.359901 0.279600 3.401000 9.397300 2.095392 -1.248506 2.165391 14.619050 -6.996042 4.678083 -2.413751 -9.405150 27.924113 2.806388 -17.713805 15.957846 -0.005800 0.492900 -1.354400 4.535758 4.467202 7.705671 0.820209 6.370185 -0.170415 -4.352905 3.357664 -4.064899 -10.397981 -5.765898 -15.456113 5.101254 -5.642438 18.577640 3.775000 -3.053100 14.255400 -7.001542 -0.216584 -1.837292 -82.116477 11.770157 0.287630 9.375892 -13.804173 -1.223164 -1.943284 -2.642009 16.772899 14.920073 24.698327 7.621500 -7.125000 0.000000 0.000000 -16.062900 57.947600 -5.177500 5.144283 1.462254 -1.273790 76.622067 2.066034 10.172787 -22.442139 32.060769 -7.302930 0.472459 -0.125484 -0.527318 -15.999374 10.663850 -3.163300 7.125000 0.000000 0.000000 7.478500 -18.809400 4.708100 
-43.448166 109.430214 87.182682 5.523146 83.850451 10.081822 -5.694036 -0.281114 1.677830 -18.325207 1.454328 -20.970973 -1.830094 4.311999 12.501493 1.214333 -3.467222 13.576656 0.663500 5.209400 14.506900 1.457664 -1.435418 1.800978 13.066848 -6.359073 1.086884 -4.642184 -12.354688 37.589628 1.979859 -18.072458 21.023885 -0.012700 -0.726700 1.997000 2.397179 3.801692 8.320005 0.773950 5.326069 -0.081257 -3.535553 2.764468 -4.418425 -10.337432 -5.787412 -15.527174 5.120780 -5.674116 18.648431 3.720300 -3.038700 14.319700 -6.962292 -0.370645 -1.862981 -83.037224 11.181207 5.340432 10.348291 -15.161458 -1.557210 -1.704901 -2.750039 12.455864 14.838807 23.921067 7.367300 -7.125000 0.000000 0.000000 -15.687600 57.141600 -4.745600 5.137368 1.457626 -1.275916 77.104061 1.474155 11.070823 -22.245549 31.814835 -7.183416 0.439632 -0.125466 0.179554 -15.284616 10.580397 -2.988700 7.125000 0.000000 0.000000 8.005300 -18.946500 5.021400 
-40.314762 109.521408 87.168090 31.748410 86.188274 35.637241 -5.838665 -0.486746 2.024163 -20.650290 2.482338 -17.478246 -1.939101 3.084340 9.950932 1.329602 -5.324969 13.781349 0.314600 3.605500 9.969400 1.228379 -1.797115 1.636723 11.869755 -5.436191 -3.314047 -6.893859 -14.906901 47.182000 1.555744 -15.700083 19.762881 -0.004500 -0.433800 1.191900 0.879896 3.061323 8.854001 0.715541 4.273264 -0.027152 -2.765867 2.095170 -4.732159 -10.379794 -5.814026 -15.208186 5.064233 -5.714488 18.362773 3.653400 -3.057500 14.097800 -6.927028 -0.654130 -1.837919 -83.334440 9.815787 11.410618 11.431826 -16.675166 -1.982998 -1.460147 -2.869940 8.461572 14.511725 23.639330 7.119100 -7.125000 0.000000 0.000000 -15.915600 56.795500 -4.682800 5.124801 1.417166 -1.287084 77.835841 0.876166 11.498391 -21.784895 31.279711 -6.918323 0.390137 -0.131261 1.343970 -14.233901 10.471790 -2.743300 7.125000 0.000000 0.000000 8.780900 -19.122500 5.484300 
